<mxfile host="app.diagrams.net" agent="Mozilla/5.0 (Windows NT 10.0; Win64; x64) AppleWebKit/537.36 (KHTML, like Gecko) Chrome/131.0.0.0 Safari/537.36" version="25.0.3">
  <diagram name="Page-1" id="y1dcnsFg_d3CUwbnYMlA">
    <mxGraphModel dx="1050" dy="522" grid="1" gridSize="10" guides="1" tooltips="1" connect="1" arrows="1" fold="1" page="1" pageScale="1" pageWidth="850" pageHeight="1100" math="0" shadow="0">
      <root>
        <mxCell id="0" />
        <mxCell id="1" parent="0" />
        <mxCell id="-Y9MwMZmBdwJIuJZQd_E-1" value="Trang chủ" style="rounded=1;whiteSpace=wrap;html=1;" vertex="1" parent="1">
          <mxGeometry x="380" y="100" width="120" height="60" as="geometry" />
        </mxCell>
        <mxCell id="-Y9MwMZmBdwJIuJZQd_E-2" value="" style="endArrow=classic;html=1;rounded=0;exitX=0;exitY=0.5;exitDx=0;exitDy=0;" edge="1" parent="1" source="-Y9MwMZmBdwJIuJZQd_E-1" target="-Y9MwMZmBdwJIuJZQd_E-3">
          <mxGeometry width="50" height="50" relative="1" as="geometry">
            <mxPoint x="400" y="300" as="sourcePoint" />
            <mxPoint x="80" y="280" as="targetPoint" />
            <Array as="points">
              <mxPoint x="120" y="130" />
            </Array>
          </mxGeometry>
        </mxCell>
        <mxCell id="-Y9MwMZmBdwJIuJZQd_E-3" value="Đăng nhập" style="rounded=1;whiteSpace=wrap;html=1;" vertex="1" parent="1">
          <mxGeometry x="60" y="250" width="120" height="60" as="geometry" />
        </mxCell>
        <mxCell id="-Y9MwMZmBdwJIuJZQd_E-4" value="" style="endArrow=classic;html=1;rounded=0;exitX=0.25;exitY=1;exitDx=0;exitDy=0;" edge="1" parent="1" source="-Y9MwMZmBdwJIuJZQd_E-1">
          <mxGeometry width="50" height="50" relative="1" as="geometry">
            <mxPoint x="400" y="300" as="sourcePoint" />
            <mxPoint x="300" y="250" as="targetPoint" />
            <Array as="points">
              <mxPoint x="410" y="220" />
              <mxPoint x="370" y="220" />
              <mxPoint x="300" y="220" />
            </Array>
          </mxGeometry>
        </mxCell>
        <mxCell id="-Y9MwMZmBdwJIuJZQd_E-5" value="" style="endArrow=classic;html=1;rounded=0;exitX=0.75;exitY=1;exitDx=0;exitDy=0;" edge="1" parent="1" source="-Y9MwMZmBdwJIuJZQd_E-1">
          <mxGeometry width="50" height="50" relative="1" as="geometry">
            <mxPoint x="420" y="170" as="sourcePoint" />
            <mxPoint x="580" y="250" as="targetPoint" />
            <Array as="points">
              <mxPoint x="470" y="220" />
              <mxPoint x="580" y="220" />
            </Array>
          </mxGeometry>
        </mxCell>
        <mxCell id="-Y9MwMZmBdwJIuJZQd_E-6" value="" style="endArrow=classic;html=1;rounded=0;exitX=0.5;exitY=1;exitDx=0;exitDy=0;" edge="1" parent="1" source="-Y9MwMZmBdwJIuJZQd_E-1">
          <mxGeometry width="50" height="50" relative="1" as="geometry">
            <mxPoint x="400" y="300" as="sourcePoint" />
            <mxPoint x="440" y="250" as="targetPoint" />
          </mxGeometry>
        </mxCell>
        <mxCell id="-Y9MwMZmBdwJIuJZQd_E-7" value="Về chúng tôi" style="rounded=1;whiteSpace=wrap;html=1;" vertex="1" parent="1">
          <mxGeometry x="240" y="250" width="120" height="60" as="geometry" />
        </mxCell>
        <mxCell id="-Y9MwMZmBdwJIuJZQd_E-8" value="Cửa hàng" style="rounded=1;whiteSpace=wrap;html=1;" vertex="1" parent="1">
          <mxGeometry x="380" y="250" width="120" height="60" as="geometry" />
        </mxCell>
        <mxCell id="-Y9MwMZmBdwJIuJZQd_E-9" value="Blog" style="rounded=1;whiteSpace=wrap;html=1;" vertex="1" parent="1">
          <mxGeometry x="520" y="250" width="120" height="60" as="geometry" />
        </mxCell>
        <mxCell id="-Y9MwMZmBdwJIuJZQd_E-10" value="" style="endArrow=classic;html=1;rounded=0;exitX=0.5;exitY=1;exitDx=0;exitDy=0;" edge="1" parent="1" source="-Y9MwMZmBdwJIuJZQd_E-8" target="-Y9MwMZmBdwJIuJZQd_E-11">
          <mxGeometry width="50" height="50" relative="1" as="geometry">
            <mxPoint x="400" y="300" as="sourcePoint" />
            <mxPoint x="580" y="350" as="targetPoint" />
          </mxGeometry>
        </mxCell>
        <mxCell id="-Y9MwMZmBdwJIuJZQd_E-11" value="Chi tiết sản phẩm" style="rounded=1;whiteSpace=wrap;html=1;" vertex="1" parent="1">
          <mxGeometry x="380" y="340" width="120" height="60" as="geometry" />
        </mxCell>
        <mxCell id="-Y9MwMZmBdwJIuJZQd_E-12" value="" style="endArrow=classic;html=1;rounded=0;exitX=1;exitY=0.5;exitDx=0;exitDy=0;" edge="1" parent="1" source="-Y9MwMZmBdwJIuJZQd_E-1">
          <mxGeometry width="50" height="50" relative="1" as="geometry">
            <mxPoint x="500" y="120" as="sourcePoint" />
            <mxPoint x="780" y="250" as="targetPoint" />
            <Array as="points">
              <mxPoint x="640" y="130" />
              <mxPoint x="780" y="130" />
            </Array>
          </mxGeometry>
        </mxCell>
        <mxCell id="-Y9MwMZmBdwJIuJZQd_E-13" value="Giỏ hàng" style="rounded=1;whiteSpace=wrap;html=1;" vertex="1" parent="1">
          <mxGeometry x="720" y="250" width="120" height="60" as="geometry" />
        </mxCell>
        <mxCell id="-Y9MwMZmBdwJIuJZQd_E-14" value="" style="endArrow=classic;html=1;rounded=0;exitX=0.5;exitY=1;exitDx=0;exitDy=0;" edge="1" parent="1" source="-Y9MwMZmBdwJIuJZQd_E-3" target="-Y9MwMZmBdwJIuJZQd_E-15">
          <mxGeometry width="50" height="50" relative="1" as="geometry">
            <mxPoint x="400" y="300" as="sourcePoint" />
            <mxPoint x="80" y="400" as="targetPoint" />
          </mxGeometry>
        </mxCell>
        <mxCell id="-Y9MwMZmBdwJIuJZQd_E-15" value="Đăng ký" style="rounded=1;whiteSpace=wrap;html=1;" vertex="1" parent="1">
          <mxGeometry x="60" y="340" width="120" height="60" as="geometry" />
        </mxCell>
        <mxCell id="-Y9MwMZmBdwJIuJZQd_E-16" value="" style="endArrow=classic;html=1;rounded=0;exitX=1;exitY=0.5;exitDx=0;exitDy=0;" edge="1" parent="1" source="-Y9MwMZmBdwJIuJZQd_E-11">
          <mxGeometry width="50" height="50" relative="1" as="geometry">
            <mxPoint x="830" y="430" as="sourcePoint" />
            <mxPoint x="780" y="310" as="targetPoint" />
            <Array as="points">
              <mxPoint x="780" y="370" />
            </Array>
          </mxGeometry>
        </mxCell>
      </root>
    </mxGraphModel>
  </diagram>
</mxfile>
